# xmcd
#
# Track frame offsets:
#	150
#	34725
#	51375
#	67512
#	98375
#	140125
#	167775
#	183750
#	212625
#	232125
#	273712
#
# Disc length: 4002 seconds
#
# Revision: 2
# Processed by: cddbd v1.5.1PL0 Copyright (c) Steve Scherf et al.
# Submitted via: audiograbber 1.83.01
#
DISCID=9a0fa00b
DTITLE=Alexis Korner And Friends - The Party Album
DYEAR=1979
DGENRE=Blues
TTITLE0=Things Ain't What They Used To Be
TTITLE1=Captain's Tiger
TTITLE2=Skipping
TTITLE3=Spoonful
TTITLE4=Medley: Finkles Cafe, Dooji Hooji
TTITLE5=Whole Mess Of Blues
TTITLE6=Lining Track
TTITLE7=Robert Johnson
TTITLE8=Hey Pretty Mama
TTITLE9=Hi-Heel Sneakers
TTITLE10=Stormy Monday Blues
EXTD=Featuring: Eric Clapton, Mel Collins, Chris Farlowe, Neil Ford, Dick Hecks
EXTD=tall-Smith, Colin Hodgkinson, Paul Jones, Zoot Money, Dick Morrissey, Duff
EXTD=y Power, Stu Speer, John Surman, Art Themen, Mike Zwerin
EXTT0=Mercer Ellington
EXTT1=Alexis Korner
EXTT2=Alexis Korner
EXTT3=Willie Dixon
EXTT4=Alexis Korner, Duke Ellington
EXTT5=Pomus, M. Shuman
EXTT6=Huddie Ledbetter
EXTT7=Alexis Korner, J. Edwards
EXTT8=Chris Farlowe
EXTT9=Robert Higginbotham
EXTT10=Billy Eckstein, Earl Hines
PLAYORDER=
